<?xml version="1.0" encoding="UTF-8"?>
<svg width="20pt" height="20pt" version="1.1" viewBox="0 0 100 100" xmlns="http://www.w3.org/2000/svg">
 <g>
  <path d="m66.191 18h-32.379c-4.1953 0.003906-8.2109 1.6719-11.176 4.6367-2.9648 2.9648-4.6328 6.9805-4.6367 11.176v32.375c0.003906 4.1953 1.6719 8.2109 4.6367 11.176 2.9648 2.9648 6.9805 4.6328 11.176 4.6367h32.379c4.1914-0.003906 8.2109-1.6719 11.172-4.6367 2.9648-2.9648 4.6328-6.9805 4.6367-11.176v-32.375c-0.003906-4.1953-1.6719-8.2109-4.6367-11.176-2.9609-2.9648-6.9805-4.6328-11.172-4.6367zm9.7344 48.188c-0.007812 5.375-4.3633 9.7305-9.7344 9.7383h-32.379c-5.375-0.007812-9.7305-4.3633-9.7383-9.7383v-32.375c0.007812-5.375 4.3633-9.7305 9.7383-9.7383h32.379c5.3711 0.007812 9.7266 4.3633 9.7344 9.7383z"/>
  <path d="m50 34.762c-4.043 0-7.918 1.6055-10.777 4.4609-2.8555 2.8594-4.4609 6.7344-4.4609 10.777s1.6055 7.918 4.4648 10.777c2.8555 2.8555 6.7344 4.4609 10.773 4.4609 4.043 0 7.918-1.6055 10.777-4.4609 2.8594-2.8594 4.4648-6.7344 4.4648-10.777-0.003907-4.0391-1.6133-7.9141-4.4688-10.773-2.8594-2.8555-6.7344-4.4609-10.773-4.4648zm0 24.406v-0.003907c-3.707 0-7.0508-2.2305-8.4688-5.6562-1.418-3.4258-0.63281-7.3672 1.9883-9.9883 2.6211-2.6211 6.5625-3.4062 9.9883-1.9883 3.4258 1.418 5.6602 4.7617 5.6602 8.4688-0.007813 5.0625-4.1055 9.1602-9.168 9.1641z"/>
  <path d="m65.863 30.066c-1.6445 0-3.1289 0.99219-3.7578 2.5117-0.62891 1.5195-0.28125 3.2695 0.88281 4.4336 1.1641 1.1641 2.9102 1.5117 4.4336 0.88281 1.5195-0.62891 2.5117-2.1133 2.5117-3.7578 0-2.2461-1.8242-4.0664-4.0703-4.0703z"/>
 </g>
</svg>
