<?xml version="1.0" encoding="UTF-8"?>
<svg width="10pt" height="10pt" version="1.1" viewBox="0 0 100 100" xmlns="http://www.w3.org/2000/svg" 
    fill="#fff"
>
 <path d="m52.051 89.961c0.60156 0.019531 1.1914 0.039062 1.7891 0.039062 14.07 0 27.262-6.6992 35.57-18.141 0.80078-1.1016 0.80078-2.5195 0-3.6211-0.80078-1.0898-2.1484-1.5117-3.4414-1.0703-4.75 1.6094-9.7305 2.3516-14.82 2.1914-22.121-0.69922-39.91-18.578-40.5-40.699-0.12891-5.0117 0.60156-9.9219 2.1914-14.602 0.44141-1.2891 0.019531-2.6406-1.0703-3.4492-1.0898-0.80078-2.5117-0.80859-3.6094 0-11.93 8.6484-18.699 22.609-18.102 37.352 0.91016 22.648 19.371 41.102 42.012 42.012z"/>
 <path d="m49.879 31.25 7.2383 5.2617c0.37109 0.26953 0.51953 0.73828 0.37891 1.1797l-2.7617 8.5117c-0.42188 1.2812 0.019531 2.6211 1.1094 3.4102 1.0898 0.78906 2.5 0.78906 3.5898 0l7.2383-5.2617c0.37109-0.26953 0.87109-0.26953 1.2383 0l7.2383 5.2617c0.53906 0.39844 1.1719 0.58984 1.7891 0.58984 0.62109 0 1.25-0.19922 1.7891-0.58984 1.0898-0.78906 1.5195-2.1289 1.1094-3.4102l-2.7617-8.5117c-0.14062-0.42969 0.011719-0.91016 0.37891-1.1797l7.2383-5.2617c1.0898-0.78906 1.5195-2.1289 1.1094-3.4102-0.42188-1.2812-1.5586-2.1094-2.8984-2.1094h-8.9414c-0.46094 0-0.85938-0.28906-1-0.73047l-2.7617-8.5117c-0.42188-1.2812-1.5586-2.1094-2.8984-2.1094-1.3516 0-2.4883 0.82812-2.8984 2.1094l-2.7617 8.5117c-0.14062 0.44141-0.53906 0.73047-1 0.73047h-8.9414c-1.3516 0-2.4883 0.82812-2.8984 2.1094-0.42188 1.2812 0.019531 2.6211 1.1094 3.4102z"/>
</svg>
