<?xml version="1.0" encoding="UTF-8"?>
<svg width="20pt" height="20pt" version="1.1" viewBox="0 0 100 100" xmlns="http://www.w3.org/2000/svg">
 <path d="m78.91 63.781c5.6016 3.3477 10.789 6.6992 15.391 10.07 2.9609 2.168 4.0742 6.1445 2.4531 9.4375-3.3008 6.7188-9.0156 11.574-17.715 13.496-7.0742 1.5586-14.453 0.49609-21.074-2.4453-10.801-4.8047-21.391-12.012-30.844-21.461-9.4492-9.4531-16.656-20.043-21.457-30.844-2.9414-6.6172-4.0078-14-2.4453-21.074 1.918-8.7031 6.7734-14.414 13.492-17.715 3.2969-1.6172 7.2695-0.50781 9.4375 2.4531 3.3711 4.6055 6.7227 9.7891 10.07 15.391 1.7539 2.9336 1.3633 6.7227-1.0195 9.1719-2.1055 2.1641-4.3086 4.2305-6.6094 6.1953-2.7695 2.3672-3.1836 6.4688-1.0938 9.4531 3.5117 5.0156 7.5664 9.8672 12.148 14.449 4.5781 4.5781 9.4297 8.6367 14.449 12.148 2.9844 2.0898 7.0898 1.6758 9.4531-1.0938 1.9648-2.3008 4.0312-4.5078 6.1953-6.6094 2.4453-2.3867 6.2305-2.7773 9.168-1.0234z"/>
</svg>
