<?xml version="1.0" encoding="UTF-8"?>
<svg width="20pt" height="20pt" version="1.1" viewBox="0 0 100 100" xmlns="http://www.w3.org/2000/svg">
 <path d="m50 12.5c-20.672 0-37.5 16.828-37.5 37.5 0 7.1094 2.0156 14.047 5.8125 20.047 0.25 0.39062 0.3125 0.89062 0.17188 1.3281l-5.1562 15.438 16.859-4.4375c0.125-0.03125 0.26562-0.046875 0.40625-0.046875 0.26562 0 0.53125 0.078125 0.76562 0.20312 5.6562 3.25 12.109 4.9688 18.641 4.9688 20.672 0 37.5-16.828 37.5-37.5s-16.828-37.5-37.5-37.5zm23.891 60.672c-0.14062 0.21875-0.32812 0.39062-0.54688 0.51562-1.5312 0.89062-3.3906 1.3281-5.5 1.3281-3.5312 0-7.7812-1.2344-12.469-3.6719-5.1562-2.6719-10.438-6.6406-15.266-11.453-4.8125-4.8281-8.7812-10.109-11.453-15.266-3.875-7.4688-4.7188-13.844-2.3438-17.969 0.125-0.21875 0.29688-0.40625 0.51562-0.54688 1.4688-0.92188 8.0156-1.6094 10.141-0.60938 0.42188 0.21875 0.75 0.60938 0.84375 1.0625 0.71875 3.1094 2.25 6.6562 4.4688 10.266 0.23438 0.39062 0.29688 0.85938 0.15625 1.2969-0.40625 1.2656-2.2656 3.625-3.6719 5.0469 2.25 3.375 5.0469 6.7812 8.1719 9.8906 3.1094 3.125 6.5156 5.9219 9.8906 8.1719 1.4219-1.4062 3.7812-3.2656 5.0469-3.6719 0.4375-0.14062 0.90625-0.078125 1.2969 0.15625 3.6094 2.2188 7.1562 3.75 10.266 4.4688 0.45312 0.09375 0.84375 0.42188 1.0625 0.84375 1 2.125 0.3125 8.6719-0.60938 10.141z" fill="#007335"/>
</svg>
